<mxfile host="app.diagrams.net" modified="2020-11-10T01:45:15.549Z" agent="5.0 (Windows NT 10.0; Win64; x64) AppleWebKit/537.36 (KHTML, like Gecko) Chrome/86.0.4240.183 Safari/537.36" etag="Yok-OKtGcysJPVA-o4X8" version="13.9.2" type="github">
  <diagram id="0-eV2PE7upg4RRqlszg1" name="Page-1">
    <mxGraphModel dx="942" dy="582" grid="1" gridSize="10" guides="1" tooltips="1" connect="1" arrows="1" fold="1" page="1" pageScale="1" pageWidth="827" pageHeight="1169" math="0" shadow="0">
      <root>
        <mxCell id="0" />
        <mxCell id="1" parent="0" />
        <mxCell id="6yI-PKDfxf6nPblSOdHI-5" value="&lt;b&gt;1. pull all data&lt;br&gt;2. specific&amp;nbsp;trigger&lt;/b&gt;" style="text;html=1;align=left;verticalAlign=middle;resizable=0;points=[];autosize=1;" vertex="1" parent="1">
          <mxGeometry x="440" y="250" width="110" height="30" as="geometry" />
        </mxCell>
        <mxCell id="6yI-PKDfxf6nPblSOdHI-3" style="edgeStyle=orthogonalEdgeStyle;rounded=1;orthogonalLoop=1;jettySize=auto;html=1;" edge="1" parent="1" source="6yI-PKDfxf6nPblSOdHI-1" target="6yI-PKDfxf6nPblSOdHI-2">
          <mxGeometry relative="1" as="geometry" />
        </mxCell>
        <mxCell id="6yI-PKDfxf6nPblSOdHI-4" value="&lt;font style=&quot;font-size: 15px&quot;&gt;&lt;b&gt;pull&lt;/b&gt;&lt;/font&gt;" style="edgeLabel;html=1;align=center;verticalAlign=middle;resizable=0;points=[];" vertex="1" connectable="0" parent="6yI-PKDfxf6nPblSOdHI-3">
          <mxGeometry x="-0.05" relative="1" as="geometry">
            <mxPoint x="-7" y="-3" as="offset" />
          </mxGeometry>
        </mxCell>
        <mxCell id="6yI-PKDfxf6nPblSOdHI-1" value="&lt;font style=&quot;font-size: 13px&quot;&gt;&lt;b&gt;mysql&lt;/b&gt;&lt;/font&gt;" style="shape=cylinder3;whiteSpace=wrap;html=1;boundedLbl=1;backgroundOutline=1;size=15;" vertex="1" parent="1">
          <mxGeometry x="180" y="80" width="60" height="80" as="geometry" />
        </mxCell>
        <mxCell id="6yI-PKDfxf6nPblSOdHI-19" style="edgeStyle=orthogonalEdgeStyle;rounded=1;orthogonalLoop=1;jettySize=auto;html=1;entryX=0.5;entryY=0;entryDx=0;entryDy=0;entryPerimeter=0;" edge="1" parent="1" source="6yI-PKDfxf6nPblSOdHI-2" target="6yI-PKDfxf6nPblSOdHI-15">
          <mxGeometry relative="1" as="geometry" />
        </mxCell>
        <mxCell id="6yI-PKDfxf6nPblSOdHI-22" style="edgeStyle=orthogonalEdgeStyle;rounded=1;orthogonalLoop=1;jettySize=auto;html=1;entryX=0.5;entryY=0;entryDx=0;entryDy=0;entryPerimeter=0;" edge="1" parent="1" source="6yI-PKDfxf6nPblSOdHI-2" target="6yI-PKDfxf6nPblSOdHI-9">
          <mxGeometry relative="1" as="geometry" />
        </mxCell>
        <mxCell id="6yI-PKDfxf6nPblSOdHI-2" value="" style="aspect=fixed;html=1;points=[];align=center;image;fontSize=12;image=img/lib/mscae/SchedulerJobCollection.svg;" vertex="1" parent="1">
          <mxGeometry x="370" y="194.2" width="80" height="68.8" as="geometry" />
        </mxCell>
        <mxCell id="6yI-PKDfxf6nPblSOdHI-9" value="&lt;b&gt;&lt;font style=&quot;font-size: 13px&quot;&gt;ES&lt;/font&gt;&lt;/b&gt;" style="shape=cylinder3;whiteSpace=wrap;html=1;boundedLbl=1;backgroundOutline=1;size=15;" vertex="1" parent="1">
          <mxGeometry x="630" y="348" width="60" height="80" as="geometry" />
        </mxCell>
        <mxCell id="6yI-PKDfxf6nPblSOdHI-16" style="edgeStyle=orthogonalEdgeStyle;rounded=1;orthogonalLoop=1;jettySize=auto;html=1;" edge="1" parent="1" source="6yI-PKDfxf6nPblSOdHI-15" target="6yI-PKDfxf6nPblSOdHI-2">
          <mxGeometry relative="1" as="geometry">
            <mxPoint x="660" y="230" as="targetPoint" />
          </mxGeometry>
        </mxCell>
        <mxCell id="6yI-PKDfxf6nPblSOdHI-17" value="&lt;font style=&quot;font-size: 14px&quot;&gt;&lt;b&gt;retry: 5&lt;/b&gt;&lt;/font&gt;" style="edgeLabel;html=1;align=center;verticalAlign=middle;resizable=0;points=[];" vertex="1" connectable="0" parent="6yI-PKDfxf6nPblSOdHI-16">
          <mxGeometry x="0.0795" y="43" relative="1" as="geometry">
            <mxPoint x="-27" y="-1.25" as="offset" />
          </mxGeometry>
        </mxCell>
        <mxCell id="6yI-PKDfxf6nPblSOdHI-15" value="" style="outlineConnect=0;dashed=0;verticalLabelPosition=bottom;verticalAlign=top;align=center;html=1;shape=mxgraph.aws3.queue;fillColor=#D9A741;gradientColor=none;" vertex="1" parent="1">
          <mxGeometry x="173.25" y="380" width="73.5" height="48" as="geometry" />
        </mxCell>
        <mxCell id="6yI-PKDfxf6nPblSOdHI-24" value="&lt;font style=&quot;font-size: 14px&quot;&gt;&lt;b&gt;fail&lt;/b&gt;&lt;/font&gt;" style="edgeLabel;html=1;align=center;verticalAlign=middle;resizable=0;points=[];" vertex="1" connectable="0" parent="1">
          <mxGeometry x="350" y="412" as="geometry">
            <mxPoint x="-140" y="-120" as="offset" />
          </mxGeometry>
        </mxCell>
        <mxCell id="6yI-PKDfxf6nPblSOdHI-25" value="&lt;font style=&quot;font-size: 14px&quot;&gt;&lt;b&gt;success&lt;/b&gt;&lt;/font&gt;" style="edgeLabel;html=1;align=center;verticalAlign=middle;resizable=0;points=[];" vertex="1" connectable="0" parent="1">
          <mxGeometry x="560" y="240.6" as="geometry">
            <mxPoint x="4" y="-14" as="offset" />
          </mxGeometry>
        </mxCell>
        <mxCell id="6yI-PKDfxf6nPblSOdHI-32" style="edgeStyle=orthogonalEdgeStyle;rounded=1;orthogonalLoop=1;jettySize=auto;html=1;" edge="1" parent="1" source="6yI-PKDfxf6nPblSOdHI-30">
          <mxGeometry relative="1" as="geometry">
            <mxPoint x="210" y="430" as="targetPoint" />
          </mxGeometry>
        </mxCell>
        <mxCell id="6yI-PKDfxf6nPblSOdHI-33" value="&lt;font style=&quot;font-size: 13px&quot;&gt;&lt;b&gt;insert/update/delete&lt;/b&gt;&lt;/font&gt;" style="edgeLabel;html=1;align=center;verticalAlign=middle;resizable=0;points=[];" vertex="1" connectable="0" parent="6yI-PKDfxf6nPblSOdHI-32">
          <mxGeometry x="-0.0164" y="-43" relative="1" as="geometry">
            <mxPoint x="-43" y="-62" as="offset" />
          </mxGeometry>
        </mxCell>
        <mxCell id="6yI-PKDfxf6nPblSOdHI-30" value="" style="shape=mxgraph.gcp2.doubleRect;strokeColor=#dddddd;shadow=1;strokeWidth=1;" vertex="1" parent="1">
          <mxGeometry x="360" y="546" width="148" height="78" as="geometry" />
        </mxCell>
        <mxCell id="6yI-PKDfxf6nPblSOdHI-31" value="&lt;font color=&quot;#666666&quot;&gt;&lt;b&gt;&lt;font style=&quot;font-size: 17px&quot;&gt;ec&lt;/font&gt;&lt;/b&gt;&lt;br&gt;&lt;/font&gt;&lt;hr&gt;&lt;font style=&quot;font-size: 11px&quot;&gt;Production&lt;/font&gt;" style="dashed=0;connectable=0;html=1;fillColor=#5184F3;strokeColor=none;shape=mxgraph.gcp2.app_engine;part=1;labelPosition=right;verticalLabelPosition=middle;align=left;verticalAlign=top;spacingLeft=5;fontColor=#999999;fontSize=12;spacingTop=-8;" vertex="1" parent="6yI-PKDfxf6nPblSOdHI-30">
          <mxGeometry width="44" height="39" relative="1" as="geometry">
            <mxPoint x="5" y="7" as="offset" />
          </mxGeometry>
        </mxCell>
        <mxCell id="6yI-PKDfxf6nPblSOdHI-34" value="&lt;font color=&quot;#666666&quot;&gt;&lt;b&gt;&lt;font style=&quot;font-size: 14px&quot;&gt;notice:&amp;nbsp;&lt;br&gt;&lt;br&gt;1. job has two logic, pull all data and specific trigger&lt;br&gt;2. ec-product will&amp;nbsp;&lt;/font&gt;&lt;/b&gt;&lt;b&gt;&lt;font style=&quot;font-size: 14px&quot;&gt;specific&amp;nbsp;&lt;/font&gt;&lt;/b&gt;&lt;/font&gt;&lt;b&gt;&lt;font style=&quot;font-size: 14px&quot;&gt;&lt;font color=&quot;#666666&quot;&gt;trigger&lt;br&gt;3. service:&amp;nbsp;&lt;br&gt;&amp;nbsp; &amp;nbsp; &amp;nbsp;- MySQL&lt;br&gt;&amp;nbsp; &amp;nbsp; &amp;nbsp;- ES&lt;br&gt;&amp;nbsp; &amp;nbsp; &amp;nbsp;- Schedule Job&lt;br&gt;&amp;nbsp; &amp;nbsp; &amp;nbsp;- MQ&lt;/font&gt;&lt;br&gt;&lt;/font&gt;&lt;/b&gt;" style="text;html=1;strokeColor=none;fillColor=none;align=left;verticalAlign=middle;whiteSpace=wrap;rounded=0;" vertex="1" parent="1">
          <mxGeometry x="60" y="690" width="400" height="130" as="geometry" />
        </mxCell>
      </root>
    </mxGraphModel>
  </diagram>
</mxfile>
